<?xml version='1.0' encoding='utf-8'?>
<svg xmlns="http://www.w3.org/2000/svg" viewBox="0 0 159.54 90.866"> <g transform="translate(-50 -756.93)"> <path d="m80.594 756.96c-1.4336 0.11093-3.2466 0.73862-5.5938 2.0938-15.022 8.6728 6.6103 12.666-2.0625 27.688s-22.938-1.7207-22.938 15.625 14.265 0.60321 22.938 15.625-12.959 19.015 2.0625 27.688 7.6543-12.062 25-12.062 9.9782 20.735 25 12.062-6.6103-12.666 2.0625-27.688 22.938 1.7207 22.938-15.625-14.265-0.60321-22.938-15.625 12.959-19.015-2.0625-27.688-7.6543 12.062-25 12.062c-14.635 0-11.665-14.755-19.406-14.156zm19.406 25.406c11.046 0 20 8.9543 20 20s-8.9543 20-20 20-20-8.9543-20-20 8.9543-20 20-20z"/> <path d="m145.84 780.15c-0.88956 0.60965-1.8317 1.6972-2.8481 3.4576-6.5046 11.266 9.0432 5.7478 9.0432 18.757s-15.544 7.484-9.039 18.75 9.4914-4.9574 20.758 1.5472-1.2868 17.21 11.722 17.21 0.4482-10.705 11.715-17.21 14.257 9.7262 20.761-1.5402-9.0432-5.7478-9.0432-18.757 15.544-7.484 9.039-18.75-9.4914 4.9574-20.758-1.5472 1.2868-17.21-11.722-17.21-0.4482 10.705-11.715 17.21c-9.506 5.4883-13.11-5.2096-17.913-1.9174zm22.132 9.2245c7.1744-4.1421 16.348-1.684 20.49 5.4904s1.684 16.348-5.4904 20.49-16.348 1.684-20.49-5.4904-1.684-16.348 5.4904-20.49z"/> </g> </svg>