<svg xmlns="http://www.w3.org/2000/svg" viewBox="0 0 800 450" width="800" height="450">
  <defs>
    <linearGradient id="grad2" x1="0%" y1="0%" x2="100%" y2="100%">
      <stop offset="0%" style="stop-color:#34d399;stop-opacity:1" />
      <stop offset="100%" style="stop-color:#16a085;stop-opacity:1" />
    </linearGradient>
  </defs>
  <rect width="800" height="450" fill="url(#grad2)" />
  <g fill="#e8f4f8" opacity="0.6">
    <rect x="250" y="150" width="300" height="150" rx="15" />
    <rect x="270" y="130" width="100" height="30" rx="5" />
    <rect x="370" y="130" width="100" height="30" rx="5" />
    <circle cx="300" cy="200" r="15" />
    <circle cx="400" cy="200" r="15" />
    <circle cx="500" cy="200" r="15" />
    <rect x="280" y="220" width="240" height="8" rx="4" />
    <rect x="320" y="250" width="160" height="20" rx="5" />
    <path d="M390 290 L410 290 L410 320 L390 320" />
    <path d="M480 290 L500 290 L500 320 L480 320" />
  </g>
  <text x="400" y="380" text-anchor="middle" fill="white" font-size="32" font-weight="bold" font-family="Arial, sans-serif">
    Hidrolimpiadora
  </text>
  <text x="400" y="415" text-anchor="middle" fill="white" font-size="20" opacity="0.9" font-family="Arial, sans-serif">
    Limpieza
  </text>
</svg>
