<svg xmlns="http://www.w3.org/2000/svg" viewBox="0 0 800 450" width="800" height="450">
  <defs>
    <linearGradient id="grad8" x1="0%" y1="0%" x2="100%" y2="100%">
      <stop offset="0%" style="stop-color:#e74c3c;stop-opacity:1" />
      <stop offset="100%" style="stop-color:#c0392b;stop-opacity:1" />
    </linearGradient>
  </defs>
  <rect width="800" height="450" fill="url(#grad8)" />
  <g fill="#e8f4f8" opacity="0.6">
    <rect x="280" y="150" width="240" height="150" rx="15" />
    <rect x="300" y="130" width="200" height="30" rx="5" />
    <rect x="320" y="200" width="60" height="20" rx="3" />
    <rect x="420" y="200" width="60" height="20" rx="3" />
    <rect x="350" y="250" width="100" height="25" rx="5" />
    <rect x="300" y="280" width="200" height="10" rx="2" />
    <path d="M330 170 L400 130 L400 200 L370 230 L360 200 L360 170 Z" />
    <path d="M430 170 L500 130 L500 200 L470 230 L460 200 L460 170 Z" />
    <rect x="360" y="210" width="80" height="25" rx="5" fill="#e8f4f8" fill-opacity="0.8" />
  </g>
  <text x="400" y="380" text-anchor="middle" fill="white" font-size="32" font-weight="bold" font-family="Arial, sans-serif">
    Martillo Demoledor
  </text>
  <text x="400" y="415" text-anchor="middle" fill="white" font-size="20" opacity="0.9" font-family="Arial, sans-serif">
    Demolición
  </text>
</svg>
